# xmcd
#
# Track frame offsets: 
#        150
#        13718
#        33251
#        57637
#        76167
#        90589
#        104466
#        125016
#        147478
#        163984
#        181016
#        199003
#
# Disc length: 2863 seconds
#
# Revision: 0
# Processed by: cddbd v1.5.2PL0 Copyright (c) Steve Scherf et al.
# Submitted via: ExactAudioCopyFreeDBPlugin 1.0
#
DISCID=a10b2d0c
DTITLE=Laura Voutilainen - Minun tähteni
DYEAR=2019
DGENRE=joululaulut
TTITLE0=Kuului laulu enkelten
TTITLE1=Minun tähteni
TTITLE2=Oi jouluyö
TTITLE3=Joulumuisto
TTITLE4=Vie vuorille tää viesti
TTITLE5=Pieni rumpalipoika
TTITLE6=Joulun henki
TTITLE7=Sylvian joululaulu
TTITLE8=Hiljaa hiljaa
TTITLE9=Joulumieli
TTITLE10=Jouluyö juhlayö
TTITLE11=Maa on niin kaunis
EXTD=
EXTT0=
EXTT1=
EXTT2=
EXTT3=
EXTT4=
EXTT5=
EXTT6=
EXTT7=
EXTT8=
EXTT9=
EXTT10=
EXTT11=
PLAYORDER=
